<svg xmlns="http://www.w3.org/2000/svg" viewBox="0 0 48 48"><defs><style>.cls-1{fill:#ef9d3a}.cls-3{fill:#ffbc5a}</style></defs><g id="DIamond"><path class="cls-1" d="M21 2h-9.11a2 2 0 0 0-1.486.662L2 12h13zM27 2h9.11a2 2 0 0 1 1.486.662L46 12H33z"/><path d="M37.596 2.662A2 2 0 0 0 36.109 2h-3a2 2 0 0 1 1.487.662L43 12h3z" style="fill:#dd8628"/><path class="cls-3" d="M33 12H15l6-10h6l6 10zM24 46l9-34h13L24 46z"/><path class="cls-1" d="M43 12 26.077 38.154 24 46l22-34h-3z"/><path class="cls-3" d="M24 46 2 12h13l9 34z"/><path class="cls-1" d="m24 46-9-34h18l-9 34z"/><path d="M46.991 12.087a.869.869 0 0 0-.06-.429.976.976 0 0 0-.041-.107c-.005-.01-.006-.02-.011-.03a.981.981 0 0 0-.09-.12c-.016-.023-.027-.049-.046-.07L38.34 1.994A3.001 3.001 0 0 0 36.109 1H11.891a3.003 3.003 0 0 0-2.23.993l-8.404 9.338c-.02.021-.03.047-.047.07a.985.985 0 0 0-.089.121c-.005.01-.006.02-.011.03a.978.978 0 0 0-.04.106.994.994 0 0 0-.048.155 1.071 1.071 0 0 0 .052.547c.006.015.006.032.013.047.01.02.025.036.035.056.014.027.022.056.038.081l22 34a1 1 0 0 0 1.68 0l22-34c.017-.026.024-.055.038-.081.01-.02.026-.035.035-.056.007-.015.008-.032.014-.048a1.351 1.351 0 0 0 .065-.272zM36.852 3.331 43.755 11H33.566l-4.8-8h7.343a1 1 0 0 1 .743.331zM16.3 13H31.7L24 42.092zM26.434 3l4.8 8H16.767l4.8-8zm-15.287.33a1.002 1.002 0 0 1 .744-.33h7.343l-4.8 8H4.245zM14.23 13l7.194 27.178L3.838 13zm12.345 27.18L33.77 13h10.392z" style="fill:#231f20"/></g></svg>